<svg t="1586915101076" class="icon" viewBox="0 0 1024 1024" version="1.1" 
    xmlns="http://www.w3.org/2000/svg" p-id="2407" width="200" height="200">
    <path d="M983.8 312.7C958 251.7 921 197 874 150c-47-47-101.7-84-162.7-109.7C648.2 13.5 581.1 0 512 0S375.8 13.5 312.7 40.3C251.7 66 197 103 150 150c-47 47-84 101.7-109.7 162.7C13.5 375.8 0 442.9 0 512s13.5 136.2 40.3 199.3C66 772.3 103 827 150 874c47 47 101.8 83.9 162.7 109.7 63.1 26.7 130.2 40.3 199.3 40.3s136.2-13.5 199.3-40.3C772.3 958 827 921 874 874c47-47 83.9-101.8 109.7-162.7 26.7-63.1 40.3-130.2 40.3-199.3s-13.5-136.2-40.2-199.3zM512 952C269.4 952 72 754.6 72 512S269.4 72 512 72s440 197.4 440 440-197.4 440-440 440z" p-id="2408"></path>
    <path d="M543.2 310.4c-6.4-11.1-18.3-18-31.2-18s-24.7 6.9-31.2 18l-212 367.2c-9.9 17.2-4 39.2 13.2 49.2 17.2 9.9 39.2 4 49.2-13.2L406 584h212l74.8 129.6c6.7 11.5 18.8 18 31.2 18 6.1 0 12.3-1.6 18-4.8 17.2-9.9 23.1-32 13.2-49.2l-212-367.2zM447.6 512L512 400.4 576.4 512H447.6z" p-id="2409"></path>
</svg>