<svg t="1586915150040" class="icon" viewBox="0 0 1024 1024" version="1.1" 
    xmlns="http://www.w3.org/2000/svg" p-id="3151" width="200" height="200">
    <path d="M1001.28 1002.624v-7.424c0-230.912-161.152-424.704-376.768-475.648a272.064 272.064 0 0 0 159.616-247.232A272.576 272.576 0 0 0 512 0a272.576 272.576 0 0 0-272.192 272.32 271.808 271.808 0 0 0 159.616 247.04C183.808 570.496 22.656 764.096 22.656 995.2c0 9.408 0.128 18.944 0.64 28.096h61.376a434.368 434.368 0 0 1-0.704-25.856c0-248.064 180.032-426.752 428.032-426.752 248.064 0 426.624 178.944 426.624 427.008v7.68c0 6.656 0.256 14.272 0 18.624l62.656-0.896v-20.48M302.784 272.32A209.408 209.408 0 0 1 512.064 63.104c115.2 0 209.088 93.888 209.088 209.216a209.408 209.408 0 0 1-209.088 209.152 209.408 209.408 0 0 1-209.28-209.152" p-id="3152"></path>
</svg>