<svg t="1587109930887" class="icon" viewBox="0 0 1024 1024" version="1.1" 
    xmlns="http://www.w3.org/2000/svg" p-id="5056" width="200" height="200">
    <path d="M461.568 231.466667V220.16c0-27.221333 22.442667-49.493333 49.92-49.493333 27.392 0 49.92 22.272 49.92 49.493333v11.306667c121.088 23.253333 213.162667 129.493333 213.162667 256.170666v237.354667h77.696v45.226667H170.666667v-45.226667h558.293333v-237.354667c-0.341333-118.954667-97.536-215.296-217.472-215.637333C391.552 272.384 294.4 368.64 293.973333 487.637333v134.656H248.32V487.68c0-126.634667 92.16-232.874667 213.205333-256.170667z m140.288 557.653333c-0.085333 47.530667-40.192 85.973333-90.368 85.973333-49.92 0-90.325333-38.314667-90.410667-85.973333h180.778667z" fill="#000000" p-id="5057"></path>
</svg>