<svg t="1587109813264" class="icon" viewBox="0 0 1024 1024" version="1.1" 
    xmlns="http://www.w3.org/2000/svg" p-id="4238" width="200" height="200">
    <path d="M514.734921 246.750649C505.162698 257.386453 500.249969 270.276034 500.249969 285.16616 500.249969 297.397334 504.175087 308.083785 511.92403 316.364518 519.824913 324.771867 530.03022 329.102159 541.678957 329.102159 551.073917 329.102159 565.077726 326.189975 577.91666 311.780993 587.944704 300.891955 592.984049 287.774464 592.984049 273.162895 592.984049 261.210278 588.881668 250.726414 581.107402 242.622944 564.064792 224.896605 533.043698 226.795855 514.734921 246.750649ZM967.769518 511.708782C967.769518 765.87917 763.334174 972.618938 511.949353 972.618938 260.615179 972.618938 56.179835 765.87917 56.179835 511.708782 56.179835 257.411776 260.615179 50.722655 511.949353 50.722655 763.334174 50.722655 967.769518 257.411776 967.769518 511.708782ZM978.734525 312.084873C953.259243 251.080941 916.540396 196.230581 870.122709 149.382397 823.629053 102.331627 769.4371 65.38487 709.294161 39.529738 584.272819-13.851868 439.853797-13.851868 314.781809 39.529738 254.613547 65.38487 200.497564 102.35695 153.927937 149.382397 107.43428 196.331874 70.740757 251.258204 45.366768 312.084873 19.005169 375.418552 5.53315 442.37347 5.53315 511.607488 5.53315 580.79086 18.929199 647.771101 45.265475 711.02881 70.690111 771.906126 107.383634 826.705839 153.877291 873.857902 200.294977 920.832703 254.436284 957.855429 314.731162 983.634592 377.330465 1010.426688 443.626975 1023.84806 511.92403 1023.84806 580.322378 1023.84806 646.593565 1010.426688 709.218191 983.583945 769.487746 957.804783 823.629053 920.832703 870.072063 873.857902 916.540396 826.781809 953.183273 771.906126 978.633232 711.003487 1005.070801 647.771101 1018.416203 580.79086 1018.416203 511.607488 1018.46685 442.37347 1005.121448 375.418552 978.734525 312.084873ZM553.226402 633.311472C538.462893 647.568514 528.080322 656.457007 521.16705 662.104113 524.560378 643.618073 533.372901 607.000519 554.568539 534.904963 575.71353 463.493137 577.511487 451.00873 577.511487 444.880481 577.511487 434.19403 573.105225 424.7231 565.432253 418.164354 548.161733 403.780696 517.723075 406.61691 480.978905 427.635285 460.492321 439.258699 438.714247 458.200559 414.403838 485.144595L401.742167 499.401637 443.804239 532.144719 454.541336 521.407622C466.266043 509.936148 474.19225 502.440438 479.510152 497.45174 447.400153 604.164305 431.775651 670.511462 431.775651 700.19042 431.775651 713.662438 435.624799 724.855355 443.449712 733.313352 451.325271 742.024581 462.391572 746.582783 475.053243 746.582783 487.461681 746.582783 501.668076 741.746025 518.938596 731.844598 534.512451 722.905458 557.860573 703.406484 590.527685 672.334743L603.82244 659.521132 565.584193 621.890645 553.226402 633.311472Z" p-id="4239"></path>
</svg>